<?xml version="1.0" encoding="utf-8"?>
<!-- Generator: Adobe Illustrator 25.2.1, SVG Export Plug-In . SVG Version: 6.00 Build 0)  -->

<svg version="1.1" id="onscreen_keyboard" xmlns="http://www.w3.org/2000/svg" xmlns:xlink="http://www.w3.org/1999/xlink" x="0px" y="0px"
	 viewBox="0 0 1107 335.66" style="enable-background:new 0 0 1107 335.66;" xml:space="preserve">
<style type="text/css">
	.key_button_style{
		fill:white;
		stroke:#ED1C24;
		stroke-miterlimit:10;
	}
	
	.key_name_style{
		font-family:'MyriadPro-Regular';
		font-size:24px;
		fill:#000000;
	}
	
	.key_button:hover {
		fill: pink;
	}
	
	.key_button:focus {
		fill: aquamarine;
	}
	
	.hide {
		display: none;
	}

</style>
	
			<g class="key_button_and_name" id="right_punctuation_numbers">
				<path class="key_button key_button_style" d="M1105.12,323.4c0,5.5-4.5,10-10,10h-139.5c-5.5,0-10-4.5-10-10v-43c0-5.5,4.5-10,10-10h139.5
					c5.5,0,10,4.5,10,10V323.4z"/>
				<g class="text" transform="translate(945.62, 270.4)">
					<text x="79.75" y="31.5" alignment-baseline="middle" text-anchor="middle" id="r_punctuation_numbers" class="hide mirrored_font_key_name key_name key_name_style punctuation_numbers_group two_state_key_names">.?123</text>
					<text x="-79.75" y="31.5" alignment-baseline="middle" text-anchor="middle" transform="scale(-1, 1)" id="mirrored_r_punctuation_numbers" class="mirrored_key_name key_name key_name_style punctuation_numbers_group two_state_key_names">.?123</text>
					<text x="79.75" y="31.5" alignment-baseline="middle" text-anchor="middle" id="r_punctuation_numbers_alphabet" class="hide mirrored_font_key_name key_name key_name_style alphabet_key_punctuation_numbers_group two_state_key_names">abc</text>
					<text x="-79.75" y="31.5" alignment-baseline="middle" text-anchor="middle" transform="scale(-1, 1)" id="mirrored_r_punctuation_numbers_alphabet" class="hide mirrored_key_name key_name key_name_style alphabet_key_punctuation_numbers_group two_state_key_names">abc</text>
				</g>
			</g>
			<g class="key_button_and_name" id="right_accent_chars">
				<path class="key_button key_button_style" d="M941.62,323.4c0,5.5-4.5,10-10,10h-140c-5.5,0-10-4.5-10-10v-43c0-5.5,4.5-10,10-10h140c5.5,0,10,4.5,10,10
					V323.4z"/>
				<g class="text" transform="translate(781.62, 270.4)">
					<text x="80" y="31.5" alignment-baseline="middle" text-anchor="middle" id="r_accent_chars" class="hide mirrored_font_key_name key_name key_name_style accent_chars_group two_state_key_names">Accent Char</text>
					<text x="-80" y="31.5" alignment-baseline="middle" text-anchor="middle" transform="scale(-1, 1)" id="mirrored_r_accent_chars" class="mirrored_key_name key_name key_name_style accent_chars_group two_state_key_names">Accent Char</text>
					<text x="80" y="31.5" alignment-baseline="middle" text-anchor="middle" id="r_accent_chars_alphabet" class="hide mirrored_font_key_name key_name key_name_style alphabet_key_accent_chars_group two_state_key_names">abc</text>
					<text x="-80" y="31.5" alignment-baseline="middle" text-anchor="middle" transform="scale(-1, 1)" id="mirrored_r_accent_chars_alphabet" class="hide mirrored_key_name key_name key_name_style alphabet_key_accent_chars_group two_state_key_names">abc</text>
				</g>
			</g>
			<g class="key_button_and_name" id="space_bar">
				<path class="key_button key_button_style" d="M777.62,323.4c0,5.5-4.5,10-10,10h-428c-5.5,0-10-4.5-10-10v-43c0-5.5,4.5-10,10-10h428c5.5,0,10,4.5,10,10
					V323.4z"/>
			</g>
			<g class="key_button_and_name" id="left_accent_chars">
				<path class="key_button key_button_style" d="M325.62,323.4c0,5.5-4.5,10-10,10h-140c-5.5,0-10-4.5-10-10v-43c0-5.5,4.5-10,10-10h140c5.5,0,10,4.5,10,10
					V323.4z"/>
				<g class="text" transform="translate(165.62, 270.4)">
					<text x="80" y="31.5" alignment-baseline="middle" text-anchor="middle" id="l_accent_chars" class="hide mirrored_font_key_name key_name key_name_style accent_chars_group two_state_key_names">Accent Char</text>
					<text x="-80" y="31.5" alignment-baseline="middle" text-anchor="middle" transform="scale(-1, 1)" id="mirrored_l_accent_chars" class="mirrored_key_name key_name key_name_style accent_chars_group two_state_key_names">Accent Char</text>
					<text x="80" y="31.5" alignment-baseline="middle" text-anchor="middle" id="l_accent_chars_alphabet" class="hide mirrored_font_key_name key_name key_name_style alphabet_key_accent_chars_group two_state_key_names">abc</text>
					<text x="-80" y="31.5" alignment-baseline="middle" text-anchor="middle" transform="scale(-1, 1)" id="mirrored_l_accent_chars_alphabet" class="hide mirrored_key_name key_name key_name_style alphabet_key_accent_chars_group two_state_key_names">abc</text>
				</g>
			</g>
			<g class="key_button_and_name" id="left_punctuation_numbers">
				<path class="key_button key_button_style" d="M161.62,323.4c0,5.5-4.5,10-10,10h-140c-5.5,0-10-4.5-10-10v-43c0-5.5,4.5-10,10-10h140c5.5,0,10,4.5,10,10
					V323.4z"/>
				<g class="text" transform="translate(1.62, 270.4)">		
					<text x="80" y="31.5" alignment-baseline="middle" text-anchor="middle" id="l_punctuation_numbers" class="hide mirrored_font_key_name key_name key_name_style punctuation_numbers_group two_state_key_names">.?123</text>
					<text x="-80" y="31.5" alignment-baseline="middle" text-anchor="middle" transform="scale(-1, 1)" id="mirrored_l_punctuation_numbers" class="mirrored_key_name key_name key_name_style punctuation_numbers_group two_state_key_names">.?123</text>
					<text x="80" y="31.5" alignment-baseline="middle" text-anchor="middle" id="l_punctuation_numbers_alphabet" class="hide mirrored_font_key_name key_name key_name_style alphabet_key_punctuation_numbers_group two_state_key_names">abc</text>
					<text x="-80" y="31.5" alignment-baseline="middle" text-anchor="middle" transform="scale(-1, 1)" id="mirrored_l_punctuation_numbers_alphabet" class="hide mirrored_key_name key_name key_name_style alphabet_key_punctuation_numbers_group two_state_key_names">abc</text>
				</g>
			</g>
			
			<g class="key_button_and_name" id="right_shift">
				<path class="key_button key_button_style" d="M1105.12,256.4c0,5.5-4.5,10-10,10h-139.5c-5.5,0-10-4.5-10-10v-43c0-5.5,4.5-10,10-10h139.5
					c5.5,0,10,4.5,10,10V256.4z"/>
				<g class="text" transform="translate(945.62, 203.4)">
					<text x="80" y="31.5" alignment-baseline="middle" text-anchor="middle" id="r_shift" class="hide mirrored_font_key_name key_name key_name_style shift_group two_state_key_names">Shift</text>
					<text x="-80" y="31.5" alignment-baseline="middle" text-anchor="middle" transform="scale(-1, 1)" id="mirrored_r_shift" class="mirrored_key_name key_name key_name_style shift_group two_state_key_names">Shift</text>
					<text x="80" y="31.5" alignment-baseline="middle" text-anchor="middle" id="r_unshift" class="hide mirrored_font_key_name key_name key_name_style unshift_group two_state_key_names">Unshift</text>
					<text x="-80" y="31.5" alignment-baseline="middle" text-anchor="middle" transform="scale(-1, 1)" id="mirrored_r_unshift" class="hide mirrored_key_name key_name key_name_style unshift_group two_state_key_names">Unshift</text>
				</g>
			</g>
			<g class="key_button_and_name" id="period">
				<path class="key_button key_button_style numbers_punctuation_button" d="M941.62,256.4c0,5.5-4.5,10-10,10h-58c-5.5,0-10-4.5-10-10v-43c0-5.5,4.5-10,10-10h58c5.5,0,10,4.5,10,10
					V256.4z"/>
				<g class="text" transform="translate(863.62, 203.4)">
					<text x="39" y="31.5" alignment-baseline="middle" text-anchor="middle" id="regular_period" class="hide mirrored_font_key_name key_name key_name_style">.</text>
					<text x="-39" y="31.5" alignment-baseline="middle" text-anchor="middle" transform="scale(-1, 1)" id="mirrored_period" class="mirrored_key_name key_name key_name_style">.</text>
				</g>
			</g>
			<g class="key_button_and_name" id="comma">
				<path class="key_button key_button_style numbers_punctuation_button" d="M859.62,256.4c0,5.5-4.5,10-10,10h-58c-5.5,0-10-4.5-10-10v-43c0-5.5,4.5-10,10-10h58c5.5,0,10,4.5,10,10
					V256.4z"/>
				<g class="text" transform="translate(781.62, 203.4)">
					<text x="39" y="31.5" alignment-baseline="middle" text-anchor="middle" id="regular_comma" class="hide mirrored_font_key_name key_name key_name_style">,</text>
					<text x="-39" y="31.5" alignment-baseline="middle" text-anchor="middle" transform="scale(-1, 1)" id="mirrored_comma" class="mirrored_key_name key_name key_name_style">,</text>
				</g>
			</g>
			<g class="key_button_and_name" id="m">
				<path class="key_button key_button_style alphabet_button numbers_punctuation_button" d="M777.62,256.4c0,5.5-4.5,10-10,10h-58c-5.5,0-10-4.5-10-10v-43c0-5.5,4.5-10,10-10h58c5.5,0,10,4.5,10,10
					V256.4z"/>
				<g class="text" transform="translate(699.62, 203.4)">
					<text x="39" y="31.5" alignment-baseline="middle" text-anchor="middle" id="regular_lowercase_m" class="hide mirrored_font_key_name key_name key_name_style lowercase_letter">m</text>
					<text x="-39" y="31.5" alignment-baseline="middle" text-anchor="middle" transform="scale(-1, 1)" id="mirrored_m" class="mirrored_key_name key_name key_name_style lowercase_letter">m</text>
					<text x="39" y="31.5" alignment-baseline="middle" text-anchor="middle" id="regular_uppercase_m" class="hide mirrored_font_key_name key_name key_name_style uppercase_letter">M</text>
					<text x="-39" y="31.5" alignment-baseline="middle" text-anchor="middle" transform="scale(-1, 1)" id="mirrored_uppercase_m" class="hide mirrored_key_name key_name key_name_style uppercase_letter">M</text>
				</g>
			</g>
			<g class="key_button_and_name" id="n">
				<path class="key_button key_button_style alphabet_button numbers_punctuation_button" d="M695.62,256.4c0,5.5-4.5,10-10,10h-58c-5.5,0-10-4.5-10-10v-43c0-5.5,4.5-10,10-10h58c5.5,0,10,4.5,10,10
					V256.4z"/>
				<g class="text" transform="translate(617.62, 203.4)">
					<text x="39" y="31.5" alignment-baseline="middle" text-anchor="middle" id="regular_lowercase_n" class="hide mirrored_font_key_name key_name key_name_style lowercase_letter">n</text>
					<text x="-39" y="31.5" alignment-baseline="middle" text-anchor="middle" transform="scale(-1, 1)" id="mirrored_n" class="mirrored_key_name key_name key_name_style lowercase_letter">n</text>
					<text x="39" y="31.5" alignment-baseline="middle" text-anchor="middle" id="regular_uppercase_n" class="hide mirrored_font_key_name key_name key_name_style uppercase_letter">N</text>
					<text x="-39" y="31.5" alignment-baseline="middle" text-anchor="middle" transform="scale(-1, 1)" id="mirrored_uppercase_n" class="hide mirrored_key_name key_name key_name_style uppercase_letter">N</text>
				</g>
			</g>
			<g class="key_button_and_name" id="b">
				<path class="key_button key_button_style alphabet_button numbers_punctuation_button" d="M613.62,256.4c0,5.5-4.5,10-10,10h-58c-5.5,0-10-4.5-10-10v-43c0-5.5,4.5-10,10-10h58c5.5,0,10,4.5,10,10
					V256.4z"/>
				<g class="text" transform="translate(535.62, 203.4)">
					<text x="39" y="31.5" alignment-baseline="middle" text-anchor="middle" id="regular_lowercase_b" class="hide mirrored_font_key_name key_name key_name_style lowercase_letter">b</text>
					<text x="-39" y="31.5" alignment-baseline="middle" text-anchor="middle" transform="scale(-1, 1)" id="mirrored_b" class="mirrored_key_name key_name key_name_style lowercase_letter">b</text>
					<text x="39" y="31.5" alignment-baseline="middle" text-anchor="middle" id="regular_uppercase_b" class="hide mirrored_font_key_name key_name key_name_style uppercase_letter">B</text>
					<text x="-39" y="31.5" alignment-baseline="middle" text-anchor="middle" transform="scale(-1, 1)" id="mirrored_uppercase_b" class="hide mirrored_key_name key_name key_name_style uppercase_letter">B</text>
				</g>
			</g>
			<g class="key_button_and_name" id="v">
				<path class="key_button key_button_style alphabet_button numbers_punctuation_button" d="M531.62,256.4c0,5.5-4.5,10-10,10h-58c-5.5,0-10-4.5-10-10v-43c0-5.5,4.5-10,10-10h58c5.5,0,10,4.5,10,10
					V256.4z"/>
				<g class="text" transform="translate(453.62, 203.4)">
					<text x="39" y="31.5" alignment-baseline="middle" text-anchor="middle" id="regular_lowercase_v" class="hide mirrored_font_key_name key_name key_name_style lowercase_letter">v</text>
					<text x="-39" y="31.5" alignment-baseline="middle" text-anchor="middle" transform="scale(-1, 1)" id="mirrored_v" class="mirrored_key_name key_name key_name_style lowercase_letter">v</text>
					<text x="39" y="31.5" alignment-baseline="middle" text-anchor="middle" id="regular_uppercase_v" class="hide mirrored_font_key_name key_name key_name_style uppercase_letter">V</text>
					<text x="-39" y="31.5" alignment-baseline="middle" text-anchor="middle" transform="scale(-1, 1)" id="mirrored_uppercase_v" class="hide mirrored_key_name key_name key_name_style uppercase_letter">V</text>
				</g>
			</g>
			<g class="key_button_and_name" id="c">
				<path class="key_button key_button_style alphabet_button numbers_punctuation_button" d="M449.62,256.4c0,5.5-4.5,10-10,10h-58c-5.5,0-10-4.5-10-10v-43c0-5.5,4.5-10,10-10h58c5.5,0,10,4.5,10,10
					V256.4z"/>
				<g class="text" transform="translate(371.62, 203.4)">
					<text x="39" y="31.5" alignment-baseline="middle" text-anchor="middle" id="regular_lowercase_c" class="hide mirrored_font_key_name key_name key_name_style lowercase_letter">c</text>
					<text x="-39" y="31.5" alignment-baseline="middle" text-anchor="middle" transform="scale(-1, 1)" id="mirrored_c" class="mirrored_key_name key_name key_name_style lowercase_letter">c</text>
					<text x="39" y="31.5" alignment-baseline="middle" text-anchor="middle" id="regular_uppercase_c" class="hide mirrored_font_key_name key_name key_name_style uppercase_letter">C</text>
					<text x="-39" y="31.5" alignment-baseline="middle" text-anchor="middle" transform="scale(-1, 1)" id="mirrored_uppercase_c" class="hide mirrored_key_name key_name key_name_style uppercase_letter">C</text>
				</g>
			</g>
			<g class="key_button_and_name" id="x">
				<path class="key_button key_button_style alphabet_button numbers_punctuation_button" d="M367.62,256.4c0,5.5-4.5,10-10,10h-58c-5.5,0-10-4.5-10-10v-43c0-5.5,4.5-10,10-10h58c5.5,0,10,4.5,10,10
					V256.4z"/>
				<g class="text" transform="translate(289.62, 203.4)">
					<text x="39" y="31.5" alignment-baseline="middle" text-anchor="middle" id="regular_lowercase_x" class="hide mirrored_font_key_name key_name key_name_style lowercase_letter">x</text>
					<text x="-39" y="31.5" alignment-baseline="middle" text-anchor="middle" transform="scale(-1, 1)" id="mirrored_x" class="mirrored_key_name key_name key_name_style lowercase_letter">x</text>
					<text x="39" y="31.5" alignment-baseline="middle" text-anchor="middle" id="regular_uppercase_x" class="hide mirrored_font_key_name key_name key_name_style uppercase_letter">X</text>
					<text x="-39" y="31.5" alignment-baseline="middle" text-anchor="middle" transform="scale(-1, 1)" id="mirrored_uppercase_x" class="hide mirrored_key_name key_name key_name_style uppercase_letter">X</text>
				</g>
			</g>
			<g class="key_button_and_name" id="z">
				<path class="key_button key_button_style alphabet_button numbers_punctuation_button" d="M285.62,256.4c0,5.5-4.5,10-10,10h-58c-5.5,0-10-4.5-10-10v-43c0-5.5,4.5-10,10-10h58c5.5,0,10,4.5,10,10
					V256.4z"/>
				<g class="text" transform="translate(207.62, 203.4)">
					<text x="39" y="31.5" alignment-baseline="middle" text-anchor="middle" id="regular_lowercase_z" class="hide mirrored_font_key_name key_name key_name_style lowercase_letter">z</text>
					<text x="-39" y="31.5" alignment-baseline="middle" text-anchor="middle" transform="scale(-1, 1)" id="mirrored_z" class="mirrored_key_name key_name key_name_style lowercase_letter">z</text>
					<text x="39" y="31.5" alignment-baseline="middle" text-anchor="middle" id="regular_uppercase_z" class="hide mirrored_font_key_name key_name key_name_style uppercase_letter">Z</text>
					<text x="-39" y="31.5" alignment-baseline="middle" text-anchor="middle" transform="scale(-1, 1)" id="mirrored_uppercase_z" class="hide mirrored_key_name key_name key_name_style uppercase_letter">Z</text>
				</g>
			</g>
			<g class="key_button_and_name" id="left_shift">
				<path class="key_button key_button_style" d="M202.62,256.4c0,5.5-4.5,10-10,10h-181c-5.5,0-10-4.5-10-10v-43c0-5.5,4.5-10,10-10h181c5.5,0,10,4.5,10,10
					V256.4z"/>
				<g class="text" transform="translate(1.62, 203.4)">
					<text x="100.5" y="31.5" alignment-baseline="middle" text-anchor="middle" id="l_shift" class="hide mirrored_font_key_name key_name key_name_style shift_group two_state_key_names">Shift</text>
					<text x="-100.5" y="31.5" alignment-baseline="middle" text-anchor="middle" transform="scale(-1, 1)" id="mirrored_l_shift" class="mirrored_key_name key_name key_name_style shift_group two_state_key_names">Shift</text>
					<text x="100.5" y="31.5" alignment-baseline="middle" text-anchor="middle" id="l_unshift" class="hide mirrored_font_key_name key_name key_name_style unshift_group two_state_key_names">Unshift</text>
					<text x="-100.5" y="31.5" alignment-baseline="middle" text-anchor="middle" transform="scale(-1, 1)" id="mirrored_l_unshift" class="hide mirrored_key_name key_name key_name_style unshift_group two_state_key_names">Unshift</text>
				</g>
			</g>
			
			<g class="key_button_and_name" id="enter">
				<path class="key_button key_button_style" d="M1105.12,189.4c0,5.5-4.5,10-10,10h-178.5c-5.5,0-10-4.5-10-10v-43c0-5.5,4.5-10,10-10h178.5
					c5.5,0,10,4.5,10,10V189.4z"/>
				<g class="text" transform="translate(906.62, 136.4)">
					<text x="99.25" y="31.5" alignment-baseline="middle" text-anchor="middle" id="regular_enter" class="hide mirrored_font_key_name key_name key_name_style single_state_key_names">Enter</text>
					<text x="-99.25" y="31.5" alignment-baseline="middle" text-anchor="middle" transform="scale(-1, 1)" id="mirrored_enter" class="mirrored_key_name key_name key_name_style single_state_key_names">Enter</text>
				</g>
			</g>
			<g class="key_button_and_name" id="l">
				<path class="key_button key_button_style alphabet_button numbers_punctuation_button" d="M902.62,189.4c0,5.5-4.5,10-10,10h-58c-5.5,0-10-4.5-10-10v-43c0-5.5,4.5-10,10-10h58c5.5,0,10,4.5,10,10
					V189.4z"/>
				<g class="text" transform="translate(824.62, 136.4)">
					<text x="39" y="31.5" alignment-baseline="middle" text-anchor="middle" id="regular_lowercase_l" class="hide mirrored_font_key_name key_name key_name_style lowercase_letter">l</text>
					<text x="-39" y="31.5" alignment-baseline="middle" text-anchor="middle" transform="scale(-1, 1)" id="mirrored_l" class="mirrored_key_name key_name key_name_style lowercase_letter">l</text>
					<text x="39" y="31.5" alignment-baseline="middle" text-anchor="middle" id="regular_uppercase_l" class="hide mirrored_font_key_name key_name key_name_style uppercase_letter">L</text>
					<text x="-39" y="31.5" alignment-baseline="middle" text-anchor="middle" transform="scale(-1, 1)" id="mirrored_uppercase_l" class="hide mirrored_key_name key_name key_name_style uppercase_letter">L</text>
				</g>
			</g>
			<g class="key_button_and_name" id="k">
				<path class="key_button key_button_style alphabet_button numbers_punctuation_button" d="M820.62,189.4c0,5.5-4.5,10-10,10h-58c-5.5,0-10-4.5-10-10v-43c0-5.5,4.5-10,10-10h58c5.5,0,10,4.5,10,10
					V189.4z"/>
				<g class="text" transform="translate(742.62, 136.4)">
					<text x="39" y="31.5" alignment-baseline="middle" text-anchor="middle" id="regular_lowercase_k" class="hide mirrored_font_key_name key_name key_name_style lowercase_letter">k</text>
					<text x="-39" y="31.5" alignment-baseline="middle" text-anchor="middle" transform="scale(-1, 1)" id="mirrored_k" class="mirrored_key_name key_name key_name_style lowercase_letter">k</text>
					<text x="39" y="31.5" alignment-baseline="middle" text-anchor="middle" id="regular_uppercase_k" class="hide mirrored_font_key_name key_name key_name_style uppercase_letter">K</text>
					<text x="-39" y="31.5" alignment-baseline="middle" text-anchor="middle" transform="scale(-1, 1)" id="mirrored_uppercase_k" class="hide mirrored_key_name key_name key_name_style uppercase_letter">K</text>
				</g>
			</g>
			<g class="key_button_and_name" id="j">
				<path class="key_button key_button_style alphabet_button numbers_punctuation_button" d="M738.62,189.4c0,5.5-4.5,10-10,10h-58c-5.5,0-10-4.5-10-10v-43c0-5.5,4.5-10,10-10h58c5.5,0,10,4.5,10,10
					V189.4z"/>
				<g class="text" transform="translate(660.62, 136.4)">
					<text x="39" y="31.5" alignment-baseline="middle" text-anchor="middle" id="regular_lowercase_j" class="hide mirrored_font_key_name key_name key_name_style lowercase_letter">j</text>
					<text x="-39" y="31.5" alignment-baseline="middle" text-anchor="middle" transform="scale(-1, 1)" id="mirrored_j" class="mirrored_key_name key_name key_name_style lowercase_letter">j</text>
					<text x="39" y="31.5" alignment-baseline="middle" text-anchor="middle" id="regular_uppercase_j" class="hide mirrored_font_key_name key_name key_name_style uppercase_letter">J</text>
					<text x="-39" y="31.5" alignment-baseline="middle" text-anchor="middle" transform="scale(-1, 1)" id="mirrored_uppercase_j" class="hide mirrored_key_name key_name key_name_style uppercase_letter">J</text>
				</g>
			</g>
			<g class="key_button_and_name" id="h">
				<path class="key_button key_button_style alphabet_button numbers_punctuation_button" d="M656.62,189.4c0,5.5-4.5,10-10,10h-58c-5.5,0-10-4.5-10-10v-43c0-5.5,4.5-10,10-10h58c5.5,0,10,4.5,10,10
					V189.4z"/>
				<g class="text" transform="translate(578.62, 136.4)">
					<text x="39" y="31.5" alignment-baseline="middle" text-anchor="middle" id="regular_lowercase_h" class="hide mirrored_font_key_name key_name key_name_style lowercase_letter">h</text>
					<text x="-39" y="31.5" alignment-baseline="middle" text-anchor="middle" transform="scale(-1, 1)" id="mirrored_h" class="mirrored_key_name key_name key_name_style lowercase_letter">h</text>
					<text x="39" y="31.5" alignment-baseline="middle" text-anchor="middle" id="regular_uppercase_h" class="hide mirrored_font_key_name key_name key_name_style uppercase_letter">H</text>
					<text x="-39" y="31.5" alignment-baseline="middle" text-anchor="middle" transform="scale(-1, 1)" id="mirrored_uppercase_h" class="hide mirrored_key_name key_name key_name_style uppercase_letter">H</text>
				</g>
			</g>
			<g class="key_button_and_name" id="g">
				<path class="key_button key_button_style alphabet_button numbers_punctuation_button" d="M574.62,189.4c0,5.5-4.5,10-10,10h-58c-5.5,0-10-4.5-10-10v-43c0-5.5,4.5-10,10-10h58c5.5,0,10,4.5,10,10
					V189.4z"/>
				<g class="text" transform="translate(496.62, 136.4)">
					<text x="39" y="31.5" alignment-baseline="middle" text-anchor="middle" id="regular_lowercase_g" class="hide mirrored_font_key_name key_name key_name_style lowercase_letter">g</text>
					<text x="-39" y="31.5" alignment-baseline="middle" text-anchor="middle" transform="scale(-1, 1)" id="mirrored_g" class="mirrored_key_name key_name key_name_style lowercase_letter">g</text>
					<text x="39" y="31.5" alignment-baseline="middle" text-anchor="middle" id="regular_uppercase_g" class="hide mirrored_font_key_name key_name key_name_style uppercase_letter">G</text>
					<text x="-39" y="31.5" alignment-baseline="middle" text-anchor="middle" transform="scale(-1, 1)" id="mirrored_uppercase_g" class="hide mirrored_key_name key_name key_name_style uppercase_letter">G</text>
				</g>
			</g>
			<g class="key_button_and_name" id="f">
				<path class="key_button key_button_style alphabet_button numbers_punctuation_button" d="M492.62,189.4c0,5.5-4.5,10-10,10h-58c-5.5,0-10-4.5-10-10v-43c0-5.5,4.5-10,10-10h58c5.5,0,10,4.5,10,10
					V189.4z"/>
				<g class="text" transform="translate(414.62, 136.4)">
					<text x="39" y="31.5" alignment-baseline="middle" text-anchor="middle" id="regular_lowercase_f" class="hide mirrored_font_key_name key_name key_name_style lowercase_letter">f</text>
					<text x="-39" y="31.5" alignment-baseline="middle" text-anchor="middle" transform="scale(-1, 1)" id="mirrored_f" class="mirrored_key_name key_name key_name_style lowercase_letter">f</text>
					<text x="39" y="31.5" alignment-baseline="middle" text-anchor="middle" id="regular_uppercase_f" class="hide mirrored_font_key_name key_name key_name_style uppercase_letter">F</text>
					<text x="-39" y="31.5" alignment-baseline="middle" text-anchor="middle" transform="scale(-1, 1)" id="mirrored_uppercase_f" class="hide mirrored_key_name key_name key_name_style uppercase_letter">F</text>
				</g>
			</g>
			<g class="key_button_and_name" id="d">
				<path class="key_button key_button_style alphabet_button numbers_punctuation_button" d="M410.62,189.4c0,5.5-4.5,10-10,10h-58c-5.5,0-10-4.5-10-10v-43c0-5.5,4.5-10,10-10h58c5.5,0,10,4.5,10,10
					V189.4z"/>
				<g class="text" transform="translate(332.62, 136.4)">
					<text x="39" y="31.5" alignment-baseline="middle" text-anchor="middle" id="regular_lowercase_d" class="hide mirrored_font_key_name key_name key_name_style lowercase_letter">d</text>
					<text x="-39" y="31.5" alignment-baseline="middle" text-anchor="middle" transform="scale(-1, 1)" id="mirrored_d" class="mirrored_key_name key_name key_name_style lowercase_letter">d</text>
					<text x="39" y="31.5" alignment-baseline="middle" text-anchor="middle" id="regular_uppercase_d" class="hide mirrored_font_key_name key_name key_name_style uppercase_letter">D</text>
					<text x="-39" y="31.5" alignment-baseline="middle" text-anchor="middle" transform="scale(-1, 1)" id="mirrored_uppercase_d" class="hide mirrored_key_name key_name key_name_style uppercase_letter">D</text>
				</g>
			</g>
			<g class="key_button_and_name" id="s">
				<path class="key_button key_button_style alphabet_button numbers_punctuation_button" d="M328.62,189.4c0,5.5-4.5,10-10,10h-58c-5.5,0-10-4.5-10-10v-43c0-5.5,4.5-10,10-10h58c5.5,0,10,4.5,10,10
					V189.4z"/>
				<g class="text" transform="translate(250.62, 136.4)">
					<text x="39" y="31.5" alignment-baseline="middle" text-anchor="middle" id="regular_lowercase_s" class="hide mirrored_font_key_name key_name key_name_style lowercase_letter">s</text>
					<text x="-39" y="31.5" alignment-baseline="middle" text-anchor="middle" transform="scale(-1, 1)" id="mirrored_s" class="mirrored_key_name key_name key_name_style lowercase_letter">s</text>
					<text x="39" y="31.5" alignment-baseline="middle" text-anchor="middle" id="regular_uppercase_s" class="hide mirrored_font_key_name key_name key_name_style uppercase_letter">S</text>
					<text x="-39" y="31.5" alignment-baseline="middle" text-anchor="middle" transform="scale(-1, 1)" id="mirrored_uppercase_s" class="hide mirrored_key_name key_name key_name_style uppercase_letter">S</text>
				</g>
			</g>
			<g class="key_button_and_name" id="a">
				<path class="key_button key_button_style alphabet_button numbers_punctuation_button" d="M246.62,189.4c0,5.5-4.5,10-10,10h-58c-5.5,0-10-4.5-10-10v-43c0-5.5,4.5-10,10-10h58c5.5,0,10,4.5,10,10
					V189.4z"/>
				<g class="text" transform="translate(168.62, 136.4)">
					<text x="39" y="31.5" alignment-baseline="middle" text-anchor="middle" id="regular_lowercase_a" class="hide mirrored_font_key_name key_name key_name_style lowercase_letter">a</text>
					<text x="-39" y="31.5" alignment-baseline="middle" text-anchor="middle" transform="scale(-1, 1)" id="mirrored_a" class="mirrored_key_name key_name key_name_style lowercase_letter">a</text>
					<text x="39" y="31.5" alignment-baseline="middle" text-anchor="middle" id="regular_uppercase_a" class="hide mirrored_font_key_name key_name key_name_style uppercase_letter">A</text>
					<text x="-39" y="31.5" alignment-baseline="middle" text-anchor="middle" transform="scale(-1, 1)" id="mirrored_uppercase_a" class="hide mirrored_key_name key_name key_name_style uppercase_letter">A</text>
				</g>
			</g>
			<g class="key_button_and_name" id="caps_lock">
				<path class="key_button key_button_style" d="M164.62,189.4c0,5.5-4.5,10-10,10h-143c-5.5,0-10-4.5-10-10v-43c0-5.5,4.5-10,10-10h143c5.5,0,10,4.5,10,10
					V189.4z"/>
				<g class="text" transform="translate(1.62, 136.4)">
					<text x="81.5" y="31.5" alignment-baseline="middle" text-anchor="middle" id="regular_caps_lock" class="hide mirrored_font_key_name key_name key_name_style caps_lock two_state_key_names">Caps Lock</text>
					<text x="-81.5" y="31.5" alignment-baseline="middle" text-anchor="middle" transform="scale(-1, 1)" id="mirrored_caps_lock" class="mirrored_key_name key_name key_name_style caps_lock two_state_key_names">Caps Lock</text>
					<text x="81.5" y="31.5" alignment-baseline="middle" text-anchor="middle" id="regular_caps_unlock" class="hide mirrored_font_key_name key_name key_name_style caps_unlock two_state_key_names">Caps Unlock</text>
					<text x="-81.5" y="31.5" alignment-baseline="middle" text-anchor="middle" transform="scale(-1, 1)" id="mirrored_caps_unlock" class="hide mirrored_key_name key_name key_name_style caps_unlock two_state_key_names">Caps Unlock</text>
				</g>
			</g>
			
			<g class="key_button_and_name" id="backspace">
				<path class="key_button key_button_style" d="M1105.12,122.4c0,5.5-4.5,10-10,10h-140.5c-5.5,0-10-4.5-10-10v-43c0-5.5,4.5-10,10-10h140.5
					c5.5,0,10,4.5,10,10V122.4z"/>
				<g class="text" transform="translate(945.11, 69.4)">
					<text x="80.25" y="31.5" alignment-baseline="middle" text-anchor="middle" id="regular_backspace" class="hide mirrored_font_key_name key_name key_name_style single_state_key_names">Backspace</text>
					<text x="-80.25" y="31.5" alignment-baseline="middle" text-anchor="middle" transform="scale(-1, 1)" id="mirrored_backspace" class="mirrored_key_name key_name key_name_style single_state_key_names">Backspace</text>
				</g>
			</g>
			<g class="key_button_and_name" id="p">
				<path class="key_button key_button_style alphabet_button numbers_punctuation_button" d="M940.62,122.4c0,5.5-4.5,10-10,10h-58c-5.5,0-10-4.5-10-10v-43c0-5.5,4.5-10,10-10h58c5.5,0,10,4.5,10,10
					V122.4z"/>
				<g class="text" transform="translate(862.62, 69.4)">
					<text x="39" y="31.5" alignment-baseline="middle" text-anchor="middle" id="regular_lowercase_p" class="hide mirrored_font_key_name key_name key_name_style lowercase_letter">p</text>
					<text x="-39" y="31.5" alignment-baseline="middle" text-anchor="middle" transform="scale(-1, 1)" id="mirrored_p" class="mirrored_key_name key_name key_name_style lowercase_letter">p</text>
					<text x="39" y="31.5" alignment-baseline="middle" text-anchor="middle" id="regular_uppercase_p" class="hide mirrored_font_key_name key_name key_name_style uppercase_letter">P</text>
					<text x="-39" y="31.5" alignment-baseline="middle" text-anchor="middle" transform="scale(-1, 1)" id="mirrored_uppercase_p" class="hide mirrored_key_name key_name key_name_style uppercase_letter">P</text>
				</g>
			</g>
			<g class="key_button_and_name" id="o">
				<path class="key_button key_button_style alphabet_button numbers_punctuation_button" d="M858.62,122.4c0,5.5-4.5,10-10,10h-58c-5.5,0-10-4.5-10-10v-43c0-5.5,4.5-10,10-10h58c5.5,0,10,4.5,10,10
					V122.4z"/>
				<g class="text" transform="translate(780.62, 69.4)">
					<text x="39" y="31.5" alignment-baseline="middle" text-anchor="middle" id="regular_lowercase_o" class="hide mirrored_font_key_name key_name key_name_style lowercase_letter">o</text>
					<text x="-39" y="31.5" alignment-baseline="middle" text-anchor="middle" transform="scale(-1, 1)" id="mirrored_o" class="mirrored_key_name key_name key_name_style lowercase_letter">o</text>
					<text x="39" y="31.5" alignment-baseline="middle" text-anchor="middle" id="regular_uppercase_o" class="hide mirrored_font_key_name key_name key_name_style uppercase_letter">O</text>
					<text x="-39" y="31.5" alignment-baseline="middle" text-anchor="middle" transform="scale(-1, 1)" id="mirrored_uppercase_o" class="hide mirrored_key_name key_name key_name_style uppercase_letter">O</text>
				</g>
			</g>
			<g class="key_button_and_name" id="i">
				<path class="key_button key_button_style alphabet_button numbers_punctuation_button" d="M776.62,122.4c0,5.5-4.5,10-10,10h-58c-5.5,0-10-4.5-10-10v-43c0-5.5,4.5-10,10-10h58c5.5,0,10,4.5,10,10
					V122.4z"/>
				<g class="text" transform="translate(698.62, 69.4)">
					<text x="39" y="31.5" alignment-baseline="middle" text-anchor="middle" id="regular_lowercase_i" class="hide mirrored_font_key_name key_name key_name_style lowercase_letter">i</text>
					<text x="-39" y="31.5" alignment-baseline="middle" text-anchor="middle" transform="scale(-1, 1)" id="mirrored_i" class="mirrored_key_name key_name key_name_style lowercase_letter">i</text>
					<text x="39" y="31.5" alignment-baseline="middle" text-anchor="middle" id="regular_uppercase_i" class="hide mirrored_font_key_name key_name key_name_style uppercase_letter">I</text>
					<text x="-39" y="31.5" alignment-baseline="middle" text-anchor="middle" transform="scale(-1, 1)" id="mirrored_uppercase_i" class="hide mirrored_key_name key_name key_name_style uppercase_letter">I</text>
				</g>
			</g>
			<g class="key_button_and_name" id="u">
				<path class="key_button key_button_style alphabet_button numbers_punctuation_button" d="M694.62,122.4c0,5.5-4.5,10-10,10h-58c-5.5,0-10-4.5-10-10v-43c0-5.5,4.5-10,10-10h58c5.5,0,10,4.5,10,10
					V122.4z"/>
				<g class="text" transform="translate(616.62, 69.4)">
					<text x="39" y="31.5" alignment-baseline="middle" text-anchor="middle" id="regular_lowercase_u" class="hide mirrored_font_key_name key_name key_name_style lowercase_letter">u</text>
					<text x="-39" y="31.5" alignment-baseline="middle" text-anchor="middle" transform="scale(-1, 1)" id="mirrored_u" class="mirrored_key_name key_name key_name_style lowercase_letter">u</text>
					<text x="39" y="31.5" alignment-baseline="middle" text-anchor="middle" id="regular_uppercase_u" class="hide mirrored_font_key_name key_name key_name_style uppercase_letter">U</text>
					<text x="-39" y="31.5" alignment-baseline="middle" text-anchor="middle" transform="scale(-1, 1)" id="mirrored_uppercase_u" class="hide mirrored_key_name key_name key_name_style uppercase_letter">U</text>
				</g>
			</g>
			<g class="key_button_and_name" id="y">
				<path class="key_button key_button_style alphabet_button numbers_punctuation_button" d="M612.62,122.4c0,5.5-4.5,10-10,10h-58c-5.5,0-10-4.5-10-10v-43c0-5.5,4.5-10,10-10h58c5.5,0,10,4.5,10,10
					V122.4z"/>
				<g class="text" transform="translate(534.62, 69.4)">
					<text x="39" y="31.5" alignment-baseline="middle" text-anchor="middle" id="regular_lowercase_y" class="hide mirrored_font_key_name key_name key_name_style lowercase_letter">y</text>
					<text x="-39" y="31.5" alignment-baseline="middle" text-anchor="middle" transform="scale(-1, 1)" id="mirrored_y" class="mirrored_key_name key_name key_name_style lowercase_letter">y</text>
					<text x="39" y="31.5" alignment-baseline="middle" text-anchor="middle" id="regular_uppercase_y" class="hide mirrored_font_key_name key_name key_name_style uppercase_letter">Y</text>
					<text x="-39" y="31.5" alignment-baseline="middle" text-anchor="middle" transform="scale(-1, 1)" id="mirrored_uppercase_y" class="hide mirrored_key_name key_name key_name_style uppercase_letter">Y</text>
				</g>
			</g>
			<g class="key_button_and_name" id="t">
				<path class="key_button key_button_style alphabet_button numbers_punctuation_button" d="M530.62,122.4c0,5.5-4.5,10-10,10h-58c-5.5,0-10-4.5-10-10v-43c0-5.5,4.5-10,10-10h58c5.5,0,10,4.5,10,10
					V122.4z"/>
				<g class="text" transform="translate(452.62, 69.4)">
					<text x="39" y="31.5" alignment-baseline="middle" text-anchor="middle" id="regular_lowercase_t" class="hide mirrored_font_key_name key_name key_name_style lowercase_letter">t</text>
					<text x="-39" y="31.5" alignment-baseline="middle" text-anchor="middle" transform="scale(-1, 1)" id="mirrored_t" class="mirrored_key_name key_name key_name_style lowercase_letter">t</text>
					<text x="39" y="31.5" alignment-baseline="middle" text-anchor="middle" id="regular_uppercase_t" class="hide mirrored_font_key_name key_name key_name_style uppercase_letter">T</text>
					<text x="-39" y="31.5" alignment-baseline="middle" text-anchor="middle" transform="scale(-1, 1)" id="mirrored_uppercase_t" class="hide mirrored_key_name key_name key_name_style uppercase_letter">T</text>
				</g>
			</g>
			<g class="key_button_and_name" id="r">
				<path class="key_button key_button_style alphabet_button numbers_punctuation_button" d="M448.62,122.4c0,5.5-4.5,10-10,10h-58c-5.5,0-10-4.5-10-10v-43c0-5.5,4.5-10,10-10h58c5.5,0,10,4.5,10,10
					V122.4z"/>
				<g class="text" transform="translate(370.62, 69.4)">
					<text x="39" y="31.5" alignment-baseline="middle" text-anchor="middle" id="regular_lowercase_r" class="hide mirrored_font_key_name key_name key_name_style lowercase_letter">r</text>
					<text x="-39" y="31.5" alignment-baseline="middle" text-anchor="middle" transform="scale(-1, 1)" id="mirrored_r" class="mirrored_key_name key_name key_name_style lowercase_letter">r</text>
					<text x="39" y="31.5" alignment-baseline="middle" text-anchor="middle" id="regular_uppercase_r" class="hide mirrored_font_key_name key_name key_name_style uppercase_letter">R</text>
					<text x="-39" y="31.5" alignment-baseline="middle" text-anchor="middle" transform="scale(-1, 1)" id="mirrored_uppercase_r" class="hide mirrored_key_name key_name key_name_style uppercase_letter">R</text>
				</g>
			</g>
			<g class="key_button_and_name" id="e">
				<path class="key_button key_button_style alphabet_button numbers_punctuation_button" d="M366.62,122.4c0,5.5-4.5,10-10,10h-58c-5.5,0-10-4.5-10-10v-43c0-5.5,4.5-10,10-10h58c5.5,0,10,4.5,10,10
					V122.4z"/>
				<g class="text" transform="translate(288.62, 69.4)">
					<text x="39" y="31.5" alignment-baseline="middle" text-anchor="middle" id="regular_lowercase_e" class="hide mirrored_font_key_name key_name key_name_style lowercase_letter">e</text>
					<text x="-39" y="31.5" alignment-baseline="middle" text-anchor="middle" transform="scale(-1, 1)" id="mirrored_e" class="mirrored_key_name key_name key_name_style lowercase_letter">e</text>
					<text x="39" y="31.5" alignment-baseline="middle" text-anchor="middle" id="regular_uppercase_e" class="hide mirrored_font_key_name key_name key_name_style uppercase_letter">E</text>
					<text x="-39" y="31.5" alignment-baseline="middle" text-anchor="middle" transform="scale(-1, 1)" id="mirrored_uppercase_e" class="hide mirrored_key_name key_name key_name_style uppercase_letter">E</text>
				</g>
			</g>
			<g class="key_button_and_name" id="w">
				<path class="key_button key_button_style alphabet_button numbers_punctuation_button" d="M284.62,122.4c0,5.5-4.5,10-10,10h-58c-5.5,0-10-4.5-10-10v-43c0-5.5,4.5-10,10-10h58c5.5,0,10,4.5,10,10
					V122.4z"/>
				<g class="text" transform="translate(206.62, 69.4)">
					<text x="39" y="31.5" alignment-baseline="middle" text-anchor="middle" id="regular_lowercase_w" class="hide mirrored_font_key_name key_name key_name_style lowercase_letter">w</text>
					<text x="-39" y="31.5" alignment-baseline="middle" text-anchor="middle" transform="scale(-1, 1)" id="mirrored_w" class="mirrored_key_name key_name key_name_style lowercase_letter">w</text>
					<text x="39" y="31.5" alignment-baseline="middle" text-anchor="middle" id="regular_uppercase_w" class="hide mirrored_font_key_name key_name key_name_style uppercase_letter">W</text>
					<text x="-39" y="31.5" alignment-baseline="middle" text-anchor="middle" transform="scale(-1, 1)" id="mirrored_uppercase_w" class="hide mirrored_key_name key_name key_name_style uppercase_letter">W</text>
				</g>
			</g>
			<g class="key_button_and_name" id="q">
				<path class="key_button key_button_style alphabet_button numbers_punctuation_button" d="M202.62,122.4c0,5.5-4.5,10-10,10h-58c-5.5,0-10-4.5-10-10v-43c0-5.5,4.5-10,10-10h58c5.5,0,10,4.5,10,10
					V122.4z"/>
				<g class="text" transform="translate(124.62, 69.4)">
					<text x="39" y="31.5" alignment-baseline="middle" text-anchor="middle" id="regular_lowercase_q" class="hide mirrored_font_key_name key_name key_name_style lowercase_letter">q</text>
					<text x="-39" y="31.5" alignment-baseline="middle" text-anchor="middle" transform="scale(-1, 1)" id="mirrored_q" class="mirrored_key_name key_name key_name_style lowercase_letter">q</text>
					<text x="39" y="31.5" alignment-baseline="middle" text-anchor="middle" id="regular_uppercase_q" class="hide mirrored_font_key_name key_name key_name_style uppercase_letter">Q</text>
					<text x="-39" y="31.5" alignment-baseline="middle" text-anchor="middle" transform="scale(-1, 1)" id="mirrored_uppercase_q" class="hide mirrored_key_name key_name key_name_style uppercase_letter">Q</text>
				</g>
			</g>
			<g class="key_button_and_name" id="tab">
				<path class="key_button key_button_style" d="M120.62,122.4c0,5.5-4.5,10-10,10h-99c-5.5,0-10-4.5-10-10v-43c0-5.5,4.5-10,10-10h99c5.5,0,10,4.5,10,10
					V122.4z"/>
				<g class="text" transform="translate(1.62, 69.4)">
					<text x="59.5" y="31.5" alignment-baseline="middle" text-anchor="middle" id="regular_tab" class="hide mirrored_font_key_name key_name key_name_style single_state_key_names">Tab</text>
					<text x="-59.5" y="31.5" alignment-baseline="middle" text-anchor="middle" transform="scale(-1, 1)" id="mirrored_tab" class="mirrored_key_name key_name key_name_style single_state_key_names">Tab</text>
				</g>
			</g>
			
			<g class="key_button_and_name" id="keyboard_state_6">
				<path class="key_button key_button_style" d="M1105.12,55.74c0,5.5-4.5,10-10,10h-134.5c-5.5,0-10-4.5-10-10v-43c0-5.5,4.5-10,10-10h134.5
					c5.5,0,10,4.5,10,10V55.74z"/>
				<g class="text" transform="translate(950.4, 2.26)">
					<text x="77.25" y="31.5" alignment-baseline="middle" text-anchor="middle" id="regular_keyboard_state_6" class="hide mirrored_font_key_name key_name key_name_style option_key_names option_6">option 6</text>
					<text x="-77.25" y="31.5" alignment-baseline="middle" text-anchor="middle" transform="scale(-1, 1)" id="mirrored_keyboard_state_6" class="mirrored_key_name key_name key_name_style option_key_names option_6">option 6</text>
				</g>
			</g>
			<g class="key_button_and_name" id="keyboard_state_5">
				<path class="key_button key_button_style" d="M946.96,55.74c0,5.5-4.5,10-10,10h-134.5c-5.5,0-10-4.5-10-10v-43c0-5.5,4.5-10,10-10h134.5
					c5.5,0,10,4.5,10,10V55.74z"/>
				<g class="text" transform="translate(792.23, 2.26)">
					<text x="77.25" y="31.5" alignment-baseline="middle" text-anchor="middle" id="regular_keyboard_state_5" class="hide mirrored_font_key_name key_name key_name_style option_key_names option_5">option 5</text>
					<text x="-77.25" y="31.5" alignment-baseline="middle" text-anchor="middle" transform="scale(-1, 1)" id="mirrored_keyboard_state_5" class="mirrored_key_name key_name key_name_style option_key_names option_5">option 5</text>
				</g>
			</g>
			<g class="key_button_and_name" id="keyboard_state_4">
				<path class="key_button key_button_style" d="M788.79,55.74c0,5.5-4.5,10-10,10h-134.5c-5.5,0-10-4.5-10-10v-43c0-5.5,4.5-10,10-10h134.5
					c5.5,0,10,4.5,10,10V55.74z"/>
				<g class="text" transform="translate(634.06, 2.26)">
					<text x="77.25" y="31.5" alignment-baseline="middle" text-anchor="middle" id="regular_keyboard_state_4" class="hide mirrored_font_key_name key_name key_name_style option_key_names option_4">option 4</text>
					<text x="-77.25" y="31.5" alignment-baseline="middle" text-anchor="middle" transform="scale(-1, 1)" id="mirrored_keyboard_state_4" class="mirrored_key_name key_name key_name_style option_key_names option_4">option 4</text>
				</g>
			</g>
			<g class="key_button_and_name" id="keyboard_state_3">
				<path class="key_button key_button_style" d="M630.62,55.74c0,5.5-4.5,10-10,10h-134.5c-5.5,0-10-4.5-10-10v-43c0-5.5,4.5-10,10-10h134.5
					c5.5,0,10,4.5,10,10V55.74z"/>
				<g class="text" transform="translate(475.89, 2.26)">
					<text x="77.25" y="31.5" alignment-baseline="middle" text-anchor="middle" id="regular_keyboard_state_3" class="hide mirrored_font_key_name key_name key_name_style option_key_names option_3">option 3</text>
					<text x="-77.25" y="31.5" alignment-baseline="middle" text-anchor="middle" transform="scale(-1, 1)" id="mirrored_keyboard_state_3" class="mirrored_key_name key_name key_name_style option_key_names option_3">option 3</text>
				</g>
			</g>
			<g class="key_button_and_name" id="keyboard_state_2">
				<path class="key_button key_button_style" d="M472.45,55.74c0,5.5-4.5,10-10,10h-134.5c-5.5,0-10-4.5-10-10v-43c0-5.5,4.5-10,10-10h134.5
					c5.5,0,10,4.5,10,10V55.74z"/>
				<g class="text" transform="translate(317.73, 2.26)">
					<text x="77.25" y="31.5" alignment-baseline="middle" text-anchor="middle" id="regular_keyboard_state_2" class="hide mirrored_font_key_name key_name key_name_style option_key_names option_2">.?123</text>
					<text x="-77.25" y="31.5" alignment-baseline="middle" text-anchor="middle" transform="scale(-1, 1)" id="mirrored_keyboard_state_2" class="mirrored_key_name key_name key_name_style option_key_names option_2">.?123</text>
				</g>
			</g>
			<g class="key_button_and_name" id="keyboard_state_1">
				<path class="key_button key_button_style" d="M314.29,55.74c0,5.5-4.5,10-10,10h-134.5c-5.5,0-10-4.5-10-10v-43c0-5.5,4.5-10,10-10h134.5
					c5.5,0,10,4.5,10,10V55.74z"/>
				<g class="text" transform="translate(159.56, 2.26)">
					<text x="77.25" y="31.5" alignment-baseline="middle" text-anchor="middle" id="regular_keyboard_state_1" class="hide mirrored_font_key_name key_name key_name_style option_key_names option_1">Accent Chars</text>
					<text x="-77.25" y="31.5" alignment-baseline="middle" text-anchor="middle" transform="scale(-1, 1)" id="mirrored_keyboard_state_1" class="mirrored_key_name key_name key_name_style option_key_names option_1">Accent Chars</text>
				</g>
			</g>
			<g class="key_button_and_name" id="keyboard_state_0">
				<path class="key_button key_button_style" d="M156.12,55.74c0,5.5-4.5,10-10,10H11.62c-5.5,0-10-4.5-10-10v-43c0-5.5,4.5-10,10-10h134.5
					c5.5,0,10,4.5,10,10V55.74z"/>
				<g class="text" transform="translate(1.39, 2.26)">
					<text x="77.25" y="31.5" alignment-baseline="middle" text-anchor="middle" id="regular_keyboard_state_0" class="hide mirrored_font_key_name key_name key_name_style option_key_names option_0">abc</text>
					<text x="-77.25" y="31.5" alignment-baseline="middle" text-anchor="middle" transform="scale(-1, 1)" id="mirrored_keyboard_state_0" class="mirrored_key_name key_name key_name_style option_key_names option_0">abc</text>
				</g>
			</g>
</svg>